<svg xmlns="http://www.w3.org/2000/svg" viewBox="0 0 448 512">
  <path fill="#25D366" d="M380.9 97.1C339-3.3 223.7-49.7 123.3-7.8 22.9 34.1-27.6 149.4 14.3 249.8L0 320l71.9-18.9c37.8 25.4 82.6 38.9 128.8 38.9h.1c127.1 0 230.7-103.6 230.7-230.7 0-61.6-24-119.5-50.6-162.2zM200.7 303.5c-40.4 0-79.9-10.8-114.4-31.3l-8.2-4.9-42.7 11.2 11.4-41.6-5.4-8.5c-22.6-35.9-34.5-77.4-34.5-120.1C7 73.1 93.9-13.8 200.8-13.8c51.8 0 100.5 20.2 137.1 56.8 36.6 36.6 56.8 85.3 56.8 137.1-.1 106.9-87 193.4-193.9 193.4zm106.5-144.8c-5.8-2.9-34.2-16.9-39.5-18.8-5.3-2-9.1-2.9-12.9 2.9-3.8 5.8-14.8 18.8-18.2 22.6-3.3 3.8-6.7 4.3-12.4 1.4-5.8-2.9-24.4-9-46.5-28.7-17.2-15.3-28.8-34.2-32.1-39.9-3.3-5.8-.4-8.9 2.5-11.8 2.6-2.6 5.8-6.7 8.7-10.1 2.9-3.3 3.8-5.8 5.8-9.6 1.9-3.8 1-7.2-.5-10.1-1.4-2.9-12.9-31.1-17.7-42.6-4.7-11.2-9.4-9.7-12.9-9.9-3.3-.2-7.2-.2-11-.2-3.8 0-10.1 1.4-15.3 7.2-5.3 5.8-20.1 19.6-20.1 47.8s20.6 55.5 23.5 59.3c2.9 3.8 40.5 61.8 98.2 86.7 13.7 5.9 24.4 9.4 32.8 12 13.8 4.4 26.4 3.8 36.3 2.3 11.1-1.7 34.2-14 39-27.5 4.8-13.5 4.8-25.1 3.3-27.5-1.4-2.4-5.2-3.8-11-6.7z"/>
</svg>
